<?xml version="1.0" encoding="utf-8"?>
<!-- Generator: Adobe Illustrator 15.1.0, SVG Export Plug-In  -->
<!DOCTYPE svg PUBLIC "-//W3C//DTD SVG 1.1//EN" "http://www.w3.org/Graphics/SVG/1.1/DTD/svg11.dtd" [
	<!ENTITY ns_flows "http://ns.adobe.com/Flows/1.0/">
]>
<svg version="1.1"
	 xmlns="http://www.w3.org/2000/svg" xmlns:xlink="http://www.w3.org/1999/xlink" xmlns:a="http://ns.adobe.com/AdobeSVGViewerExtensions/3.0/"
	 x="0px" y="0px" width="168px" height="82px" viewBox="0 0 168 82" enable-background="new 0 0 168 82" xml:space="preserve">
<defs>
</defs>
<rect id="_x32_5_1_" x="0.326" y="40.929" fill="#388FB8" width="125.656" height="40.792"/>
<polygon id="_x32_4_1_" fill="#61ACD1" points="0,41.135 50.751,0 168,0 125.866,41.135 "/>
<polygon id="_x32_3_1_" fill="#1B4A78" points="125.913,81.721 167.886,36.367 167.915,0.068 125.913,41.073 "/>
<rect id="_x32_2_1_" x="117.834" y="-5.063" transform="matrix(0.6288 0.7776 -0.7776 0.6288 59.6915 -84.6846)" fill="#FFFFFF" width="1.404" height="50.471"/>
<polygon id="_x32_1_1_" fill="#FFFFFF" points="48.312,60.229 24.8,60.229 24.8,58.078 15.933,61.253 24.8,64.427 24.8,62.276 
	48.312,62.276 "/>
<polygon id="_x32_0_1_" fill="#FFFFFF" points="61.603,66.983 61.603,75.317 55.529,75.317 64.479,78.464 73.431,75.317 
	67.364,75.317 67.364,66.983 "/>
<polygon id="_x31_9_1_" fill="#FFFFFF" points="61.603,55.756 61.603,47.429 55.529,47.429 64.479,44.282 73.431,47.429 
	67.364,47.429 67.364,55.756 "/>
<polygon id="_x31_8_1_" fill="#FFFFFF" points="80.652,62.276 104.161,62.276 104.161,64.427 113.034,61.253 104.161,58.078 
	104.161,60.229 80.652,60.229 "/>
<path id="_x31_7_1_" fill="#FFFFFF" d="M99.584,75.675c-7.617,0-25.21-4.329-42.784-10.523
	c-14.095-4.96-30.568-12.089-30.605-15.844c-0.005-0.408,0.161-1.164,1.312-1.597c0.691-0.258,1.656-0.382,2.955-0.382
	c7.609,0,25.209,4.325,42.798,10.52c14.094,4.96,30.564,12.089,30.601,15.847c0.004,0.409-0.162,1.165-1.313,1.595
	C101.859,75.547,100.888,75.675,99.584,75.675z M30.461,48.734c-1.384,0-2.103,0.161-2.461,0.295
	c-0.263,0.097-0.398,0.21-0.398,0.265c0.017,1.656,9.456,7.417,29.666,14.532c17.163,6.05,34.959,10.439,42.317,10.439
	c1.39,0,2.111-0.158,2.471-0.295c0.262-0.097,0.398-0.206,0.398-0.262c-0.016-1.655-9.455-7.42-29.662-14.535
	C55.614,53.125,37.812,48.734,30.461,48.734z"/>
<path id="_x31_6_1_" fill="#FFFFFF" d="M29.651,75.685c-1.216,0-2.139-0.113-2.817-0.34c-1.242-0.416-1.432-1.192-1.438-1.615
	c-0.033-3.72,16.155-10.817,30.027-15.765C72.84,51.75,90.97,47.24,98.536,47.24c1.215,0,2.139,0.113,2.818,0.34
	c1.24,0.415,1.432,1.188,1.436,1.614c0.035,3.717-16.152,10.814-30.025,15.766C55.342,71.174,37.21,75.685,29.651,75.685z
	 M98.536,48.648c-7.424,0-25.355,4.477-42.639,10.643c-19.872,7.087-29.108,12.797-29.092,14.425c0,0.065,0.167,0.192,0.478,0.296
	c0.524,0.175,1.321,0.265,2.369,0.265c7.418,0,25.351-4.477,42.64-10.643c19.872-7.091,29.108-12.801,29.093-14.426
	c0-0.065-0.168-0.192-0.479-0.295C100.381,48.737,99.583,48.648,98.536,48.648z"/>
<path id="_x31_5_1_" fill="#B5B5B5" d="M74.122,66.097c7.768-1.931,9.65-5.724,4.215-8.472c-5.438-2.755-16.133-3.422-23.9-1.498
	c-7.764,1.924-9.65,5.724-4.208,8.472C55.66,67.354,66.358,68.021,74.122,66.097z"/>
<path id="_x31_4_1_" fill-rule="evenodd" clip-rule="evenodd" fill="#FFFFFF" d="M75.771,9.997c-0.873,2.693-13.511,2.947-13.614,0
	C62.06,7.276,75.451,7.008,75.771,9.997"/>
<path id="_x31_3_1_" fill-rule="evenodd" clip-rule="evenodd" fill="#FFFFFF" d="M106.974,9.997c-0.872,2.693-13.511,2.947-13.614,0
	C93.264,7.276,106.655,7.008,106.974,9.997"/>
<path id="_x31_2_1_" fill-rule="evenodd" clip-rule="evenodd" fill="#FFFFFF" d="M138.177,9.997c-0.872,2.693-13.511,2.947-13.614,0
	C124.467,7.276,137.858,7.008,138.177,9.997"/>
<path id="_x31_1_1_" fill-rule="evenodd" clip-rule="evenodd" fill="#FFFFFF" d="M63.867,20.187c-0.873,2.693-13.511,2.954-13.615,0
	C50.156,17.466,63.547,17.204,63.867,20.187"/>
<path id="_x31_0_1_" fill-rule="evenodd" clip-rule="evenodd" fill="#FFFFFF" d="M95.071,20.187c-0.873,2.693-13.512,2.954-13.615,0
	C81.36,17.466,94.75,17.204,95.071,20.187"/>
<path id="_x39__1_" fill-rule="evenodd" clip-rule="evenodd" fill="#FFFFFF" d="M126.274,20.187c-0.873,2.693-13.512,2.954-13.614,0
	C112.563,17.466,125.955,17.204,126.274,20.187"/>
<path id="_x38__1_" fill-rule="evenodd" clip-rule="evenodd" fill="#FFFFFF" d="M50.37,30.596c-0.873,2.693-13.512,2.947-13.615,0
	C36.659,27.875,50.05,27.606,50.37,30.596"/>
<path id="_x37__1_" fill-rule="evenodd" clip-rule="evenodd" fill="#FFFFFF" d="M81.573,30.596c-0.873,2.693-13.511,2.947-13.614,0
	C67.862,27.875,81.253,27.606,81.573,30.596"/>
<path id="_x36__1_" fill-rule="evenodd" clip-rule="evenodd" fill="#FFFFFF" d="M112.776,30.596c-0.872,2.693-13.511,2.947-13.613,0
	C99.066,27.875,112.458,27.606,112.776,30.596"/>
<rect id="_x35__1_" x="86.63" y="-5.063" transform="matrix(0.6288 0.7776 -0.7776 0.6288 48.1075 -60.4208)" fill="#FFFFFF" width="1.404" height="50.471"/>
<rect id="_x34__1_" x="55.427" y="-5.063" transform="matrix(0.6288 0.7776 -0.7776 0.6288 36.5235 -36.1571)" fill="#FFFFFF" width="1.404" height="50.471"/>
<rect id="_x33__1_" x="28.527" y="29.878" fill="#FFFFFF" width="92.971" height="1.408"/>
<rect id="_x32__1_" x="40.613" y="19.469" fill="#FFFFFF" width="92.972" height="1.408"/>
<rect id="_x31__1_" x="52.517" y="9.279" fill="#FFFFFF" width="92.971" height="1.408"/>
</svg>
