<svg xmlns="http://www.w3.org/2000/svg" width="28" height="28" viewBox="0 0 28 28">
    <g fill="#0090DD" fill-rule="nonzero">
        <path d="M13.833 0C6.193 0 0 6.193 0 13.833c0 7.64 6.193 13.834 13.833 13.834 7.64 0 13.834-6.194 13.834-13.834S21.473 0 13.833 0zm0 26.593c-7.047 0-12.76-5.713-12.76-12.76s5.713-12.76 12.76-12.76 12.76 5.713 12.76 12.76c-.007 7.044-5.716 12.753-12.76 12.76z"/>
        <path d="M21.733 13.8l-3.546-2.047v-4.1a.533.533 0 0 0-.267-.466l-3.82-2.2a.533.533 0 0 0-.533 0l-3.814 2.2a.533.533 0 0 0-.266.466v4.1L5.927 13.8a.54.54 0 0 0-.267.467v4.406c-.002.193.1.37.267.467l3.82 2.207a.54.54 0 0 0 .533 0l3.547-2.047 3.546 2.047a.54.54 0 0 0 .534 0l3.82-2.207a.533.533 0 0 0 .266-.467v-4.406a.54.54 0 0 0-.26-.467zm-7.9-7.7l3.28 1.893v3.787l-3.28 1.893-3.28-1.893V7.993l3.28-1.893zM10.02 20.287l-3.28-1.894v-3.786l3.28-1.894 3.28 1.894v3.786l-3.28 1.894zm10.913-1.894l-3.28 1.894-3.28-1.894v-3.786l3.28-1.894 3.28 1.894v3.786z"/>
    </g>
</svg>
